<?xml version="1.0" standalone="no"?>
<!DOCTYPE svg PUBLIC "-//W3C//DTD SVG 20010904//EN"
 "http://www.w3.org/TR/2001/REC-SVG-20010904/DTD/svg10.dtd">
<svg version="1.0" xmlns="http://www.w3.org/2000/svg"
 width="450.000000pt" height="85.000000pt" viewBox="0 0 450.000000 85.000000"
 preserveAspectRatio="xMidYMid meet">

<g transform="translate(0.000000,85.000000) scale(0.100000,-0.100000)"
fill="#000000" stroke="none">
<path d="M73 839 c-41 -12 -65 -47 -65 -95 0 -43 27 -74 99 -113 41 -22 48
-31 51 -61 4 -38 -16 -60 -54 -60 -25 0 -64 43 -64 71 0 11 -7 19 -15 19 -11
0 -15 -13 -15 -54 0 -52 1 -54 31 -60 121 -24 206 28 195 117 -5 48 -22 67
-91 102 -58 29 -78 62 -58 94 25 40 94 17 107 -35 11 -41 26 -26 26 25 0 48 0
48 -37 55 -48 7 -70 6 -110 -5z"/>
<path d="M1118 787 c-70 -170 -121 -267 -144 -273 -34 -9 -62 12 -104 79 l-39
61 30 33 c34 40 39 89 10 124 -18 23 -27 24 -145 27 -86 3 -126 0 -126 -7 0
-6 8 -11 18 -11 37 0 42 -20 42 -158 l0 -134 -30 -11 c-51 -19 -34 -27 60 -27
91 0 109 7 68 25 -20 9 -23 19 -26 73 -4 90 18 85 66 -18 l37 -79 123 -1 c75
0 122 4 122 10 0 6 -6 10 -14 10 -24 0 -28 18 -11 50 15 29 19 30 78 30 61 0
63 -1 74 -31 13 -35 10 -49 -13 -49 -8 0 -14 -4 -14 -10 0 -6 35 -10 85 -10
86 0 104 8 61 28 -17 8 -40 49 -90 161 -36 83 -66 155 -66 161 0 5 -6 10 -13
10 -7 0 -25 -28 -39 -63z m-323 9 c26 -19 26 -83 0 -102 -10 -8 -29 -14 -42
-14 -22 0 -23 4 -23 65 0 61 1 65 23 65 13 0 32 -6 42 -14z m364 -118 c12 -28
19 -53 17 -55 -2 -2 -24 -3 -49 -1 l-45 3 22 52 c11 29 24 53 27 53 4 0 16
-23 28 -52z"/>
<path d="M1895 836 c-98 -37 -143 -159 -95 -263 58 -128 271 -119 326 14 19
44 18 138 -2 179 -32 68 -143 101 -229 70z m123 -39 c40 -43 54 -139 32 -219
-26 -91 -136 -92 -170 -2 -15 40 -12 161 5 194 28 55 95 68 133 27z"/>
<path d="M3478 787 c-62 -151 -121 -267 -139 -272 -38 -12 -17 -25 41 -25 33
0 60 4 60 10 0 6 -6 10 -14 10 -24 0 -28 18 -11 50 15 29 19 30 78 30 61 0 63
-1 74 -31 13 -35 10 -49 -13 -49 -8 0 -14 -4 -14 -10 0 -6 58 -10 155 -10 143
0 191 9 130 24 l-25 6 0 126 0 125 68 -83 c37 -46 89 -111 116 -145 27 -35 53
-60 57 -57 5 3 9 70 9 150 0 151 7 184 40 184 11 0 20 5 20 10 0 6 -30 10 -70
10 -40 0 -70 -4 -70 -10 0 -5 6 -10 14 -10 29 0 37 -27 34 -114 l-3 -86 -85
109 -85 110 -67 0 c-73 1 -86 -8 -38 -26 l30 -11 -1 -114 c-2 -150 -7 -172
-41 -176 -49 -6 -64 13 -132 168 -36 82 -66 154 -66 160 0 5 -6 10 -13 10 -7
0 -25 -28 -39 -63z m41 -109 c12 -28 19 -53 17 -55 -2 -2 -24 -3 -49 -1 l-45
3 22 52 c11 29 24 53 27 53 4 0 16 -23 28 -52z"/>
<path d="M4245 836 c-98 -37 -143 -159 -95 -263 58 -128 271 -119 326 14 19
44 18 138 -2 179 -32 68 -143 101 -229 70z m123 -39 c40 -43 54 -139 32 -219
-26 -91 -136 -92 -170 -2 -15 40 -12 161 5 194 28 55 95 68 133 27z"/>
<path d="M260 830 c0 -5 8 -10 18 -10 37 0 42 -20 42 -158 l0 -134 -30 -11
c-16 -6 -30 -15 -30 -19 0 -4 65 -8 145 -8 l145 0 10 25 c30 78 18 102 -19 40
-20 -34 -22 -35 -86 -35 l-65 0 0 70 0 70 45 0 c39 0 45 -3 51 -25 12 -46 24
-26 24 40 0 68 -9 82 -28 40 -10 -21 -19 -25 -52 -25 l-40 0 0 60 0 60 66 0
c63 0 65 -1 75 -30 16 -44 29 -37 29 15 l0 45 -150 0 c-93 0 -150 -4 -150 -10z"/>
<path d="M1360 832 c0 -4 14 -13 30 -19 l30 -11 -1 -114 c-2 -144 -7 -172 -37
-176 -50 -7 -17 -22 48 -22 70 0 93 12 45 24 l-25 6 0 126 0 125 68 -83 c37
-46 89 -111 116 -145 27 -35 53 -60 57 -57 5 3 9 70 9 150 0 151 7 184 40 184
11 0 20 5 20 10 0 6 -30 10 -70 10 -40 0 -70 -4 -70 -10 0 -5 6 -10 14 -10 29
0 37 -27 34 -114 l-3 -86 -85 109 -85 110 -67 0 c-38 1 -68 -3 -68 -7z"/>
<path d="M2300 832 c0 -5 14 -12 30 -15 l30 -6 0 -139 c0 -142 -5 -162 -42
-162 -10 0 -18 -4 -18 -10 0 -6 30 -10 70 -10 40 0 70 4 70 10 0 6 -6 10 -14
10 -30 0 -37 27 -34 141 l3 113 60 -137 c33 -75 64 -137 70 -137 5 0 32 52 59
116 72 168 75 170 76 42 0 -110 -9 -138 -46 -138 -8 0 -14 -4 -14 -10 0 -6 38
-10 95 -10 93 0 125 12 65 24 l-30 6 0 138 c0 152 4 162 56 162 65 0 64 2 64
-156 l0 -144 -25 -6 c-14 -3 -25 -10 -25 -15 0 -6 99 -8 237 -7 l236 3 15 43
c15 46 7 70 -12 38 -27 -47 -45 -56 -106 -56 l-60 0 0 138 c0 142 5 162 42
162 10 0 18 5 18 10 0 6 -93 10 -258 10 l-258 0 -49 -116 c-27 -64 -52 -117
-56 -120 -3 -2 -29 49 -57 114 l-51 117 -70 3 c-39 2 -71 -1 -71 -6z m721 -22
c17 -10 19 -22 19 -145 0 -123 -2 -135 -19 -145 -29 -15 -67 -12 -85 6 -13 12
-16 40 -16 143 0 85 4 131 12 139 15 15 63 16 89 2z"/>
<path d="M2698 239 c-11 -6 -18 -22 -18 -39 0 -20 -5 -30 -15 -30 -8 0 -15 -4
-15 -10 0 -5 7 -10 15 -10 12 0 15 -15 15 -75 0 -43 4 -75 10 -75 6 0 10 32
10 75 0 73 1 75 25 75 14 0 25 5 25 10 0 6 -11 10 -25 10 -17 0 -25 5 -25 18
0 23 19 42 42 42 10 0 18 5 18 10 0 13 -40 12 -62 -1z"/>
<path d="M4110 125 c0 -77 4 -125 10 -125 6 0 10 48 10 125 0 77 -4 125 -10
125 -6 0 -10 -48 -10 -125z"/>
<path d="M295 233 c-26 -7 -54 -32 -71 -65 -47 -90 33 -184 140 -164 l36 7 0
54 0 55 -40 0 c-22 0 -40 -4 -40 -10 0 -5 11 -10 25 -10 23 0 25 -4 25 -40 0
-39 -1 -40 -36 -40 -47 0 -94 45 -94 90 0 69 49 116 114 108 23 -2 35 0 33 6
-4 12 -60 17 -92 9z"/>
<path d="M2080 120 c0 -100 3 -120 15 -120 11 0 15 12 15 50 0 47 2 50 25 50
44 0 94 27 100 53 14 54 -29 87 -111 87 l-44 0 0 -120z m114 84 c9 -8 16 -22
16 -30 0 -24 -38 -54 -70 -54 -29 0 -30 1 -30 50 l0 50 34 0 c19 0 42 -7 50
-16z"/>
<path d="M3370 225 c0 -8 7 -15 15 -15 8 0 15 7 15 15 0 8 -7 15 -15 15 -8 0
-15 -7 -15 -15z"/>
<path d="M1200 195 c0 -18 -5 -25 -20 -25 -11 0 -20 -4 -20 -10 0 -5 9 -10 20
-10 18 0 20 -7 20 -63 0 -68 10 -87 47 -87 30 0 30 18 1 22 -21 3 -23 9 -26
66 -3 61 -2 62 23 62 14 0 25 5 25 10 0 6 -11 10 -25 10 -20 0 -25 5 -25 25 0
14 -4 25 -10 25 -5 0 -10 -11 -10 -25z"/>
<path d="M506 149 c-21 -16 -26 -29 -26 -64 0 -35 5 -48 27 -65 28 -22 93 -25
100 -4 2 6 -8 9 -26 6 -36 -5 -67 11 -74 38 -5 18 -1 20 54 20 64 0 71 8 48
53 -23 43 -61 49 -103 16z m72 -11 c24 -24 13 -38 -28 -38 -26 0 -40 5 -40 13
0 18 21 37 40 37 9 0 21 -5 28 -12z"/>
<path d="M690 85 c0 -50 4 -85 10 -85 6 0 10 26 10 58 0 44 5 63 18 75 44 40
72 10 72 -77 0 -31 5 -56 10 -56 6 0 10 26 10 59 0 64 15 91 51 91 25 0 39
-36 39 -101 0 -27 5 -49 10 -49 17 0 12 136 -6 154 -19 20 -54 21 -79 2 -16
-11 -21 -11 -33 0 -16 17 -46 18 -73 4 -13 -7 -19 -7 -19 0 0 5 -4 10 -10 10
-6 0 -10 -35 -10 -85z"/>
<path d="M1028 159 c-21 -12 -24 -52 -5 -66 6 -6 25 -13 40 -17 22 -5 28 -12
25 -29 -2 -18 -9 -22 -41 -22 -20 0 -36 -4 -34 -10 6 -17 57 -17 83 0 33 22
28 55 -11 75 -55 28 -57 30 -44 47 8 9 24 13 41 11 18 -3 27 0 25 6 -5 15 -58
18 -79 5z"/>
<path d="M1356 149 c-21 -16 -26 -29 -26 -64 0 -35 5 -48 26 -64 34 -27 64
-27 98 0 21 16 26 29 26 62 0 48 -6 59 -37 76 -32 16 -57 14 -87 -10z m85 -15
c7 -9 13 -31 13 -49 0 -40 -19 -65 -49 -65 -31 0 -47 23 -47 65 0 20 6 42 12
50 16 20 54 19 71 -1z"/>
<path d="M1560 85 c0 -50 4 -85 10 -85 6 0 10 26 10 58 0 44 5 63 18 75 44 40
72 10 72 -77 0 -31 5 -56 10 -56 6 0 10 32 10 75 0 71 -1 76 -26 87 -19 9 -33
9 -55 1 -16 -6 -29 -7 -29 -2 0 5 -4 9 -10 9 -6 0 -10 -35 -10 -85z"/>
<path d="M1786 149 c-21 -16 -26 -29 -26 -64 0 -35 5 -48 27 -65 28 -22 93
-25 100 -4 2 6 -8 9 -26 6 -36 -5 -67 11 -74 38 -5 18 -1 20 54 20 64 0 71 8
48 53 -23 43 -61 49 -103 16z m72 -11 c24 -24 13 -38 -28 -38 -26 0 -40 5 -40
13 0 18 21 37 40 37 9 0 21 -5 28 -12z"/>
<path d="M2310 85 c0 -50 4 -85 10 -85 6 0 10 26 10 58 0 62 18 92 53 92 9 0
17 5 17 10 0 13 -16 13 -43 -1 -16 -9 -22 -9 -25 0 -2 6 -8 11 -13 11 -5 0 -9
-38 -9 -85z"/>
<path d="M2476 149 c-21 -16 -26 -29 -26 -64 0 -35 5 -48 26 -64 34 -27 64
-27 98 0 21 16 26 29 26 62 0 48 -6 59 -37 76 -32 16 -57 14 -87 -10z m85 -15
c7 -9 13 -31 13 -49 0 -40 -19 -65 -49 -65 -31 0 -47 23 -47 65 0 20 6 42 12
50 16 20 54 19 71 -1z"/>
<path d="M2836 149 c-21 -16 -26 -29 -26 -64 0 -35 5 -48 27 -65 28 -22 93
-25 100 -4 2 6 -8 9 -26 6 -36 -5 -67 11 -74 38 -5 18 -1 20 54 20 64 0 71 8
48 53 -23 43 -61 49 -103 16z m72 -11 c24 -24 13 -38 -28 -38 -26 0 -40 5 -40
13 0 18 21 37 40 37 9 0 21 -5 28 -12z"/>
<path d="M3028 159 c-21 -12 -24 -52 -5 -66 6 -6 25 -13 40 -17 22 -5 28 -12
25 -29 -2 -18 -9 -22 -41 -22 -20 0 -36 -4 -34 -10 6 -17 57 -17 83 0 33 22
28 55 -11 75 -55 28 -57 30 -44 47 8 9 24 13 41 11 18 -3 27 0 25 6 -5 15 -58
18 -79 5z"/>
<path d="M3198 159 c-21 -12 -24 -52 -5 -66 6 -6 25 -13 40 -17 22 -5 28 -12
25 -29 -2 -18 -9 -22 -41 -22 -20 0 -36 -4 -34 -10 6 -17 57 -17 83 0 33 22
28 55 -11 75 -55 28 -57 30 -44 47 8 9 24 13 41 11 18 -3 27 0 25 6 -5 15 -58
18 -79 5z"/>
<path d="M3370 85 c0 -50 4 -85 10 -85 6 0 10 35 10 85 0 50 -4 85 -10 85 -6
0 -10 -35 -10 -85z"/>
<path d="M3496 149 c-21 -16 -26 -29 -26 -64 0 -35 5 -48 26 -64 15 -12 37
-21 49 -21 12 0 34 9 49 21 21 16 26 29 26 62 0 48 -6 59 -37 76 -32 16 -57
14 -87 -10z m85 -15 c7 -9 13 -31 13 -49 0 -40 -19 -65 -49 -65 -31 0 -47 23
-47 65 0 20 6 42 12 50 16 20 54 19 71 -1z"/>
<path d="M3690 85 c0 -50 4 -85 10 -85 6 0 10 26 10 58 0 44 5 63 18 75 44 40
72 10 72 -77 0 -31 5 -56 10 -56 6 0 10 32 10 75 0 71 -1 76 -26 87 -19 9 -33
9 -55 1 -16 -6 -29 -7 -29 -2 0 5 -4 9 -10 9 -6 0 -10 -35 -10 -85z"/>
<path d="M3923 163 c-24 -9 -13 -20 17 -15 34 5 60 -12 60 -37 0 -14 -7 -17
-29 -13 -43 6 -71 -13 -71 -48 0 -37 24 -50 84 -48 l46 2 0 68 c0 58 -3 69
-22 82 -22 16 -60 20 -85 9z m77 -108 c0 -32 -43 -46 -67 -22 -22 22 -1 47 38
47 24 0 29 -4 29 -25z"/>
</g>
</svg>
